<svg xmlns="http://www.w3.org/2000/svg" width="512" height="512" viewBox="0 0 512 512" version="1.1"><path d="M 236.500 105.054 C 230.936 105.803, 229.039 106.521, 227.250 108.554 C 221.964 114.563, 225.869 120.234, 236.853 122.500 C 265.140 128.333, 290.969 149.173, 303.484 176.259 C 309.854 190.045, 311.509 198.435, 311.427 216.500 C 311.366 229.716, 310.971 233.892, 309.159 240.500 C 306.173 251.385, 298.305 267.034, 291.560 275.500 C 263.897 310.223, 215.719 321.729, 176.294 303.027 C 149.230 290.189, 131.165 268.551, 123.514 239.806 C 121.882 233.674, 120.311 229.903, 118.908 228.750 C 115.882 226.264, 110.812 226.506, 108.224 229.262 C 103.431 234.364, 102.756 265.231, 106.983 286 C 115.149 326.125, 137.462 359.755, 170.689 382.020 C 196.999 399.649, 223.130 407.500, 255.500 407.500 C 298.437 407.500, 332.862 393.282, 363.072 363.072 C 386.313 339.832, 399.674 314.542, 405.638 282.500 C 408.142 269.051, 408.156 242.314, 405.667 229.500 C 399.317 196.814, 386.252 172.102, 363.072 148.934 C 340.326 126.198, 316.411 113.319, 285 106.887 C 273.901 104.615, 247.254 103.608, 236.500 105.054 M 280.417 124.306 C 302.431 140.868, 316.900 161.410, 323.533 185.519 C 334.380 224.945, 323.572 266.307, 294.939 294.939 C 276.683 313.196, 253.387 324.244, 226.945 327.184 C 190.100 331.281, 149.422 313.902, 127.801 284.826 C 124.924 280.957, 122.403 278.290, 122.200 278.901 C 121.996 279.511, 123.010 284.592, 124.453 290.192 C 134.859 330.589, 163.940 364.344, 202.610 380.914 C 243.793 398.562, 291.693 394.535, 329.500 370.248 C 360.663 350.228, 381.491 319.293, 389.672 280.875 C 392.190 269.052, 392.143 242.884, 389.582 230.500 C 387.376 219.832, 382.047 204.032, 377.800 195.566 C 360.296 160.675, 327.795 134.215, 290.555 124.539 C 278.457 121.396, 276.489 121.351, 280.417 124.306" stroke="none" fill="#442267" fill-rule="evenodd"/><path d="M 0 256.002 L 0 512.004 256.250 511.752 L 512.500 511.500 512.752 255.750 L 513.004 0 256.502 0 L 0 0 0 256.002 M 0.492 256.500 C 0.492 397.300, 0.608 454.751, 0.750 384.170 C 0.892 313.588, 0.892 198.388, 0.750 128.170 C 0.608 57.951, 0.492 115.700, 0.492 256.500 M 236.500 105.054 C 230.936 105.803, 229.039 106.521, 227.250 108.554 C 221.964 114.563, 225.869 120.234, 236.853 122.500 C 265.140 128.333, 290.969 149.173, 303.484 176.259 C 309.854 190.045, 311.509 198.435, 311.427 216.500 C 311.366 229.716, 310.971 233.892, 309.159 240.500 C 306.173 251.385, 298.305 267.034, 291.560 275.500 C 263.897 310.223, 215.719 321.729, 176.294 303.027 C 149.230 290.189, 131.165 268.551, 123.514 239.806 C 121.882 233.674, 120.311 229.903, 118.908 228.750 C 115.882 226.264, 110.812 226.506, 108.224 229.262 C 103.431 234.364, 102.756 265.231, 106.983 286 C 115.149 326.125, 137.462 359.755, 170.689 382.020 C 196.999 399.649, 223.130 407.500, 255.500 407.500 C 298.437 407.500, 332.862 393.282, 363.072 363.072 C 386.313 339.832, 399.674 314.542, 405.638 282.500 C 408.142 269.051, 408.156 242.314, 405.667 229.500 C 399.317 196.814, 386.252 172.102, 363.072 148.934 C 340.326 126.198, 316.411 113.319, 285 106.887 C 273.901 104.615, 247.254 103.608, 236.500 105.054 M 280.417 124.306 C 302.431 140.868, 316.900 161.410, 323.533 185.519 C 334.380 224.945, 323.572 266.307, 294.939 294.939 C 276.683 313.196, 253.387 324.244, 226.945 327.184 C 190.100 331.281, 149.422 313.902, 127.801 284.826 C 124.924 280.957, 122.403 278.290, 122.200 278.901 C 121.996 279.511, 123.010 284.592, 124.453 290.192 C 134.859 330.589, 163.940 364.344, 202.610 380.914 C 243.793 398.562, 291.693 394.535, 329.500 370.248 C 360.663 350.228, 381.491 319.293, 389.672 280.875 C 392.190 269.052, 392.143 242.884, 389.582 230.500 C 387.376 219.832, 382.047 204.032, 377.800 195.566 C 360.296 160.675, 327.795 134.215, 290.555 124.539 C 278.457 121.396, 276.489 121.351, 280.417 124.306" stroke="none" fill="#fafafa" fill-rule="evenodd"/></svg>